<?xml version="1.0" encoding="UTF-8"?>
<svg
  xmlns="http://www.w3.org/2000/svg"
  xmlns:xlink="http://www.w3.org/1999/xlink"
  viewBox="0 0 1303.25 567.87"
  role="img"
  aria-label="Santosha"
>
  <style>
    .cls-1 { fill: currentColor; }
  </style>

  <g>
    <path class="cls-1" d="M139.1,415.91c-12.29-7.82-30.17-12.29-47.21-12.29-6.14,0-12.01,2.23-12.01,6.42,0,5.86,9.5,12.57,21.51,22.9,36.87,31.56,46.37,43.58,46.37,70.67,0,44.69-45.25,60.61-84.91,60.89-22.9,0-43.85-2.79-58.38-10.62v-58.66c17.88,8.94,32.12,14.25,50.56,14.25,8.1,0,17.04-2.51,17.04-7.26,0-6.7-13.13-15.64-30.44-29.33C7.54,446.64,0,433.23,0,408.65c0-31.28,29.05-60.05,83.8-60.05,16.76,0,38.55,1.12,55.3,9.78v57.54h0Z"/>
    <path class="cls-1" d="M252.5,543.01c-8.38,12.29-23.18,23.47-45.81,23.47-34.08,0-52.79-21.23-52.79-47.77s18.71-49.72,52.79-49.72c18.72,0,32.4,5.59,41.34,13.69v-8.66c0-21.51-13.13-25.14-34.08-25.14-8.1,0-21.23,1.67-39.67,5.31v-51.96c20.39-3.91,35.48-5.31,57.82-5.31,52.79,0,82.96,23.19,82.96,63.13v101.12h-62.57v-18.16h.01ZM248.59,517.87c0-8.38-4.75-15.08-12.85-15.08s-13.41,6.7-13.41,14.8,5.03,15.09,13.41,15.09c7.82,0,12.85-6.7,12.85-14.81h0Z"/>
    <path class="cls-1" d="M398.58,561.16h-67.04v-160.33h63.68v24.58c7.54-10.89,24.58-27.65,52.52-27.65,30.16,0,56.7,22.35,56.7,58.66v104.75h-67.04v-83.8c0-13.96-6.7-20.39-18.71-20.39-11.17,0-20.11,8.1-20.11,17.6v86.59h0Z"/>
    <path class="cls-1" d="M599.4,456.98v104.19h-67.04v-104.19h-15.36v-56.14h15.36v-38.83l67.04-8.38v47.21h15.36v56.14h-15.36Z"/>
    <path class="cls-1" d="M815.03,481c0,50-42.18,86.87-97.48,86.87s-97.48-36.87-97.48-86.87,42.18-86.87,97.48-86.87,97.48,36.87,97.48,86.87h0ZM690.18,481c0,17.04,12.01,28.77,27.37,28.77s27.37-11.73,27.37-28.77-12.01-28.49-27.37-28.49-27.37,12.01-27.37,28.49Z"/>
    <path class="cls-1" d="M933.18,400.27v51.96c-15.64-5.87-29.89-6.98-34.36-6.98-4.75,0-6.15,1.12-6.15,2.79,0,2.23,3.35,5.02,10.62,10.61,36.87,26.82,45.25,40.22,45.25,57.54,0,26.26-22.9,50.28-69.55,50.28-19.55,0-37.43-3.35-50.28-7.54v-51.4c16.2,6.42,31.84,8.94,41.06,8.94,4.75,0,5.86-1.12,5.86-2.51,0-2.79-3.63-6.7-13.69-14.52-34.63-24.3-39.94-37.43-39.94-53.63,0-27.37,19.27-50.84,69.83-50.28,16.76,0,29.89,1.39,41.34,4.75h.01Z"/>
    <path class="cls-1" d="M1026.18,561.16h-67.04v-217.87h63.69v87.15c5.03-10.06,22.07-32.12,52.51-32.12s56.7,22.35,56.7,58.66v104.19h-67.04v-83.24c0-13.97-6.7-20.39-18.72-20.39-11.17,0-20.11,8.1-20.11,17.6v86.03h.01Z"/>
    <path class="cls-1" d="M1240.69,543.01c-8.38,12.29-23.18,23.47-45.81,23.47-34.08,0-52.79-21.23-52.79-47.77s18.71-49.72,52.79-49.72c18.72,0,32.4,5.59,41.34,13.69v-8.66c0-21.51-13.13-25.14-34.08-25.14-8.1,0-21.23,1.67-39.67,5.31v-51.96c20.39-3.91,35.48-5.31,57.82-5.31,52.79,0,82.96,23.19,82.96,63.13v101.12h-62.57v-18.16h.01ZM1236.78,517.87c0-8.38-4.75-15.08-12.85-15.08s-13.41,6.7-13.41,14.8,5.03,15.09,13.41,15.09c7.82,0,12.85-6.7,12.85-14.81h0Z"/>
  </g>

  <g>
    <path class="cls-1" d="M382.89,328.81c1.15,1.73,1.37,3.95,1.29,6.11-.14,1.37-.94,2.66-2.3,3.09-2.88.86-4.6-.72-6.4-1.87-1.8-1.01-2.73-2.66-2.01-4.39,1.01-2.66,2.52-4.39,4.89-5.1,2.3-.57,3.52.79,4.53,2.16h0Z"/>
    <path class="cls-1" d="M532.04,323.49h-.02c-4.03-11.86-7.84-23.87-12.22-35.59-3.38-8.99-6.26-16.75-12.73-23.94-11.07-12.22-13.52-17.47-18.69-33.36-.79-2.23-1.37-4.53-1.87-6.76.14-.07.29-.07.43-.07,3.45-17.61,11.07-34.8,15.39-52.34,5.18-21.28,6.47-42.42,0-63.7-.79-2.44-2.3-5.32-.29-8.48,4.17,3.59,4.53,8.63,5.68,13.01,3.81,14.81,5.39,29.91,3.74,45.22-2.44,23.22-6.25,46.37-5.03,69.95.43,8.27,2.01,16.18,4.96,23.8,1.51,4.1,3.16,8.34,8.63,11.57-5.11-17.76-5.39-34.65-3.95-51.69,1.37-16.25,3.52-32.5,4.39-48.82,1.37-27.25.5-54.57-12.15-79.44-23.22-45.65-58.74-74.91-111.65-79.3-10.78-.93-21.5-.72-32.28-.22-38.68,1.73-77.21,4.67-115.89,4.67-25.74,0-51.19-2.44-76.64-6.18-3.67-.5-7.33-1.01-11.07-1.37-32.42-2.88-58.38,8.05-75.63,36.59-23.44,38.68-33.93,84.76-33.72,130.99.14,41.12,8.77,82.32,24.37,118.48,8.12,18.98,31.06,57.01,57.44,43.85,5.75-2.88,10.35-8.7,16.75-8.91,6.69-.22,13.8,5.75,19.34,2.08,4.67-3.09,3.45-10.86-.94-14.38-4.46-3.45-10.42-3.74-16.03-3.95,4.31-.93,8.91-2.01,12.22-5.03,3.31-2.95,4.75-8.56,1.8-11.93-3.38-3.88-10.07-2.3-13.95,1.15-3.88,3.52-6.33,8.41-10.42,11.72-15.46,12.44-34.37-5.97-37.67-20.85-2.8-12.65-.79-25.23,1.01-37.6,4.46-30.27,14.67-58.23,35.44-81.53,3.67-4.17,6.69-8.92,9.99-13.44.86-1.15,1.73-2.52,3.38-1.51,1.44.86,1.51,2.37,1.08,3.88-1.37,4.46-4.6,7.62-7.76,10.71-7.48,7.41-13.73,15.67-18.12,25.23-1.51,3.24-3.95,6.47-1.73,10.78,1.15-.22,1.73-.14,1.87-.36,7.48-12.94,19.77-19.27,33.07-24.59,10.28-4.17,18.62-10.86,22-22.14.72-2.44,2.66-4.53,3.52-6.97,3.88-10.5,10.57-16.03,22.58-15.82,8.7.14,13.95-5.25,13.95-14.16,0-10.06,3.74-17.9,10.21-25.09,6.69-7.33,9.49-15.6,6.18-25.59-2.52-7.55-2.3-14.88,1.08-22.65,4.1-9.49,0-15.67-10.42-17.61-4.67-.86-9.63-.79-14.45-.86-16.68-.14-33.43.43-50.11-1.65-5.1-.65-10.07-1.15-14.45-6.9,6.76-.79,11.5,2.37,16.68,2.8,17.83,1.51,35.66.29,53.49,1.51,4.1.29,8.2.5,12.15,1.51,11.29,2.8,16.03,11.14,11.43,21.93-3.23,7.4-3.38,14.31-1.15,21.57,3.45,11.14.5,20.63-7.05,28.83-5.75,6.25-8.77,13.08-9.27,21.86-.79,13.23-7.48,19.56-20.85,19.48-8.34,0-11.29,4.1-14.74,10.57-8.84,16.54-8.56,32.64-.29,49.03,5.03,9.78,6.54,20.35,7.55,31.13,1.3,13.66,2.88,27.32,5.18,40.84,3.31,19.91.86,39.18-4.67,58.31-1.87,6.33-3.95,12.65-6.25,20.06,9.42-.22,15.03,4.31,17.9,11.86,3.81.58,4.89-2.44,6.83-3.88,7.26-5.1,12.73-4.31,17.9,3.24,2.09,3.02,3.45,6.54,5.32,9.78,1.65,2.8,4.6,2.52,6.9,1.44,3.09-1.51.79-3.81-.14-5.54-5.32-9.78-11.57-18.91-18.91-27.61,8.41,1.22,14.52,5.9,18.98,12.8,2.59,4.03,4.75,8.41,7.26,12.51,1.73,2.88,3.45,6.11,7.77,3.95,3.88-1.94,2.01-4.82,1.15-7.62-2.37-8.12-4.6-16.32-7.33-26.03,6.4,3.31,8.27,9.13,11.93,12.65,2.52-1.08,1.87-2.8,1.87-4.1-.5-24.52-.93-48.96-5.89-73.12-2.16-10.28-2.3-20.71-1.15-31.13,1.8-17.04,11-23.01,27.82-18.55,6.9,1.87,13.09,5.1,19.19,8.63,14.88,8.63,30.41,15.67,47.16,19.56,1.8.43,3.59,1.01,5.46,1.22,15.96,1.87,14.23.86,14.02-11.43,0-1.37-.36-2.88,1.22-4.17,3.59,3.16,3.88,7.84,4.89,11.86,1.08,4.1,3.31,6.33,6.97,7.84,4.74,2.01,14.74,3.02,19.34,5.39,9.78,5.18,18.98,11.43,27.18,18.91.79.79,1.44,1.58,2.16,2.37,6.69,7.69,11.93,16.75,15.38,26.39,1.8,4.89,3.09,10.06,4.39,15.1,1.37,5.9,2.52,11.86,3.45,17.83.65,4.24.86,9.06,7.69,6.47,4.53-1.8,7.19,3.59,10.71,5.54.72-.14,1.58-.07,1.94-.5,7.33-9.63,13.66-9.49,20.49.5,2.16,3.02,2.59,8.48,7.77,7.48,5.46-1.01,4.74-6.54,5.82-10.64,1.15-4.31,2.09-8.7,5.03-12.8,2.16,2.09,1.08,4.6,1.22,6.76s-.07,4.53,2.52,6.11c5.54-4.53,7.4-10.21,4.96-17.4Z"/>
    <path class="cls-1" d="M502.81,350.35c2.21,5.89-2.56,5.54-5.7,7.18-2.98-.39-7.11,4.69-9.43-1.48-1.76-4.67.9-12.35,4.21-13.81,3.63-1.61,8.75,2.32,10.92,8.11Z"/>
    <path class="cls-1" d="M476.79,345.31c3.28,3.39,5.27,7.52,5.34,12.52-10.88,1.69-15.11-1.46-13.38-9.7,1.12-5.31,4.42-6.56,8.03-2.82h0Z"/>
    <path class="cls-1" d="M298.08,336.35h0c-3.67,2.96-7.55,3.1-11.57,2.38-3.59-.65-4.96-3.02-4.24-6.33.72-3.31,3.31-4.75,6.54-4.1,4.53.93,7.84,3.45,9.27,8.05Z"/>
    <path class="cls-1" d="M237.05,363.41c-.83,4.76-5.9,2.75-9.21,3.45-.35.07-.73,0-1.1,0-1.1,0-2.21.09-3.3-.02-2.46-.24-5.52.56-6.78-2.36-1.18-2.74,1.16-4.77,2.39-6.92.53-.93,1.36-1.73,2.17-2.47,2.95-2.69,6.19-3.99,9.93-1.57,3.6,2.33,6.6,5.85,5.9,9.89Z"/>
    <path class="cls-1" d="M207.75,354.27c1.2,3.08,3.32,6.76.55,9.23-2.74,2.44-6.12-.77-9.2-1.5-1.36-.32-2.66-1.3-3.77-2.24-2.09-1.76-3.25-3.87-2.08-6.78,1.22-3.03,3.42-4.69,6.59-5.37,4.08.44,6.47,2.94,7.91,6.66Z"/>
    <path class="cls-1" d="M314.19,327.45c.43,2.16-5.25,6.47-7.84,6.18-2.01-.58-2.95-2.01-2.66-4.03.58-3.67,2.52-5.97,6.61-5.32,1.87.36,3.52,1.22,3.88,3.16h.01Z"/>
    <path class="cls-1" d="M325.12,293.51c6.61,8.91,6.4,16.46-.36,25.23-2.52,3.24-4.82,5.32-9.27,2.73-5.82-3.38-11.29-2.95-15.24,3.45-1.01,1.73-2.8,2.73-4.6,1.22-5.03-4.1-11.07-1.51-16.89-2.01.14-26.89-4.82-52.63-8.27-78.87,12.08,14.59,28.69,23.29,42.56,35.3,4.46,3.88,8.55,8.2,12.08,12.94h-.01Z"/>
    <path class="cls-1" d="M449.24,298.33c1.61,6.97-2.85,10.2-5.41,16.75-.08.21-.15.35-.22.49-2.49,6.48-4.46,13.16-6.66,19.71-1.9,5.56-2.71,15.62-9.73,17.8-3.87,1.2-8.04,1.2-11.99.35-2.93-.7-6.59-1.47-8.85-3.37-1.32-1.2-.37-3.17.22-4.58.51-1.62,1.24-3.31,1.31-5.06-.14-2.68-2.05-5.35-4.83-6.41-1.82-.63-3.95-.63-5.99-.42-1.98.28-3.73.91-5.56,1.55-.44.14-1.1.21-1.39-.21-.22-.15-.22-.36-.29-.5-.52-2.04,0-4.08-.52-6.05-.73-2.53-1.61-4.93-4.17-6.33-1.9-1.13-4.38-1.48-6.51-.85,1.83-2.18,5.2-3.59,7.68-5.07,2.49-1.4,5.64-2.74,7.76-4.5.44-.42.95-.84,1.53-1.13,4.9-2.81,13.97-4.22,19.97-7.6-11.56-3.66-19.02,4.44-29.33,9.29,2.63-3.94,5.19-8.02,7.75-12.03,3.59-5.7,7.03-11.47,10.17-17.38,1.46-2.61,2.93-5.28,4.32-7.89,1.83-3.52,5.63-9.92,7.68-13.3,9.43,3.52,16.31,11.61,22.45,19.07,3.59,4.51,9.37,12.46,10.61,17.67Z"/>
    <path class="cls-1" d="M401.87,341.75c.65,2.44.43,5.03-1.51,6.9-1.37,1.37-2.95.14-4.24-.57-2.01-1.29-5.54-1.51-5.82-4.96.5-2.73,4.6-3.38,7.4-3.81,2.01-.29,3.67.5,4.17,2.44Z"/>
  </g>
</svg>